<?xml version="1.0" standalone="no"?><!DOCTYPE svg PUBLIC "-//W3C//DTD SVG 1.1//EN" "http://www.w3.org/Graphics/SVG/1.1/DTD/svg11.dtd"><svg class="icon" width="200px" height="200.00px" viewBox="0 0 1024 1024" version="1.1" xmlns="http://www.w3.org/2000/svg"><path fill="#333333" d="M321.6 668.7h-70.3c-32.6 0-59.2-26.6-59.2-59.2v-395c0-32.6 26.6-59.2 59.2-59.2h315.9c32.6 0 59.2 26.6 59.2 59.2v74.1c0 10.9-8.8 19.7-19.7 19.7-10.9 0-19.7-8.8-19.7-19.7v-74.1c0-10.9-8.9-19.7-19.7-19.7h-316c-10.9 0-19.7 8.9-19.7 19.7v394.9c0 10.9 8.9 19.7 19.7 19.7h70.3c10.9 0 19.7 8.8 19.7 19.7 0.1 11-8.8 19.9-19.7 19.9z m0 0"  /><path fill="#333333" d="M772.4 344.6h-316c-32.6 0-59.2 26.6-59.2 59.2v395c0 32.6 26.6 59.2 59.2 59.2h315.9c32.6 0 59.2-26.6 59.2-59.2V403.7c0.1-32.6-26.5-59.1-59.1-59.1z m19.7 454.1c0 10.9-8.9 19.7-19.7 19.7h-316c-10.9 0-19.7-8.9-19.7-19.7V403.8c0-10.9 8.9-19.7 19.7-19.7h315.9c10.9 0 19.7 8.9 19.7 19.7v394.9zM449.7 307.4H285.3c-12.1 0-21.9-9.8-21.9-21.9 0-12.1 9.8-21.9 21.9-21.9h164.5c12.1 0 21.9 9.8 21.9 21.9-0.1 12.1-9.9 21.9-22 21.9z m0 0M350.9 438.7h-65.6c-12.1 0-21.9-9.8-21.9-21.9s9.8-21.9 21.9-21.9h65.6c12.1 0 21.9 9.8 21.9 21.9s-9.8 21.9-21.9 21.9z m0 0M318.1 570h-32.8c-12.1 0-21.9-9.8-21.9-21.9 0-12.1 9.8-21.9 21.9-21.9h32.8c12.1 0 21.9 9.8 21.9 21.9 0 12.1-9.8 21.9-21.9 21.9z m0 0"  /><path fill="#333333" d="M724.5 624h-87.4v90.5c0 7.4-6 13.5-13.5 13.5h-18.5c-7.4 0-13.5-6-13.5-13.5V624h-87.4c-3.6 0-7-1.4-9.5-4-2.5-2.5-3.9-6-3.9-9.5V592c0-7.4 6-13.5 13.5-13.5h87.4V488c0-7.4 6-13.5 13.5-13.5h18.5c7.4 0 13.5 6 13.5 13.5v90.5h87.4c3.6 0 7 1.4 9.5 3.9s3.9 6 4 9.5v18.5c0 3.6-1.4 7-4 9.5-2.6 2.7-6 4.1-9.6 4.1z"  /></svg>