<?xml version="1.0" standalone="no"?><!DOCTYPE svg PUBLIC "-//W3C//DTD SVG 1.1//EN" "http://www.w3.org/Graphics/SVG/1.1/DTD/svg11.dtd"><svg class="icon" width="200px" height="200.00px" viewBox="0 0 1024 1024" version="1.1" xmlns="http://www.w3.org/2000/svg"><path fill="#333333" d="M528.170667 911.445333H227.242667a58.496 58.496 0 0 1-56.618667-60.16V188.16A58.496 58.496 0 0 1 227.242667 128h593.877333a58.496 58.496 0 0 1 56.618667 60.16v334.464a26.624 26.624 0 1 1-53.205334 0V188.16c0-4.522667-2.56-6.954667-3.456-6.954667H227.242667c-0.853333 0-3.413333 2.432-3.413334 6.954667v663.253333c0 4.522667 2.56 6.954667 3.413334 6.954667h300.928a26.624 26.624 0 0 1 0 53.205333zM851.2 743.338667h-301.141333a26.624 26.624 0 0 1 0-53.205334h301.141333a26.624 26.624 0 1 1 0 53.205334zM700.586667 911.530667a26.624 26.624 0 0 1-26.581334-26.581334v-336.384a26.624 26.624 0 0 1 53.205334 0v336.384a26.624 26.624 0 0 1-26.624 26.581334zM729.557333 341.333333H304.981333a26.624 26.624 0 1 1 0-53.205333H729.6A26.624 26.624 0 0 1 729.6 341.333333zM475.648 494.293333h-170.666667a26.624 26.624 0 1 1 0-53.205333h170.666667a26.624 26.624 0 1 1 0 53.205333z" /></svg>